<?xml version="1.0" encoding="UTF-8" standalone="no"?>
<svg
   xmlns:dc="http://purl.org/dc/elements/1.1/"
   xmlns:cc="http://creativecommons.org/ns#"
   xmlns:rdf="http://www.w3.org/1999/02/22-rdf-syntax-ns#"
   xmlns:svg="http://www.w3.org/2000/svg"
   xmlns="http://www.w3.org/2000/svg"
   width="200"
   height="100"
   viewBox="0 0 52.916666 26.458334"
   version="1.1"
   id="svg8">
  <defs
     id="defs2" />
  <metadata
     id="metadata5">
    <rdf:RDF>
      <cc:Work
         rdf:about="">
        <dc:format>image/svg+xml</dc:format>
        <dc:type
           rdf:resource="http://purl.org/dc/dcmitype/StillImage" />
        <dc:title></dc:title>
      </cc:Work>
    </rdf:RDF>
  </metadata>
  <g
     id="layer1"
     transform="translate(0,-270.54165)">
    <g
       transform="matrix(0,-0.09010182,0.09010182,0,-14.971939,321.52926)"
       id="layer1-6">
      <path
         id="path4144"
         d="m 303.82209,745.69644 c -9.80734,-3.02858 -18.08768,-12.63143 -21.93158,-25.43443 -1.21307,-4.04041 -1.2892,-13.81396 -1.47025,-188.74669 l -0.19094,-184.48564 1.52464,-3.54411 c 1.00125,-2.32747 3.15974,-5.07869 6.28775,-8.01436 17.40981,-16.33933 62.93969,-26.20028 108.75284,-23.55389 43.92414,2.53727 77.08927,14.20562 85.9746,30.24809 l 2.12437,3.83555 0.53235,84.28571 c 0.29279,46.35714 0.44453,129.76786 0.33719,185.35714 -0.21629,112.01593 0.16279,103.22653 -4.89694,113.53905 -2.7649,5.63528 -9.46708,12.57863 -14.54403,15.06737 l -3.57143,1.75073 -78.57143,0.12345 c -43.21428,0.0679 -79.375,-0.12468 -80.35714,-0.42797 z"
         style="opacity:0.99800002;fill:none;fill-opacity:1;fill-rule:nonzero;stroke:#ffffff;stroke-width:0;stroke-miterlimit:4;stroke-dasharray:none;stroke-opacity:0.77287065" />
      <path
         id="path4146"
         d="m 303.82209,745.69644 c -9.80734,-3.02858 -18.08768,-12.63143 -21.93158,-25.43443 -1.21307,-4.04041 -1.2892,-13.81396 -1.47025,-188.74669 l -0.19094,-184.48564 1.52464,-3.54411 c 1.00125,-2.32747 3.15974,-5.07869 6.28775,-8.01436 17.40981,-16.33933 62.93969,-26.20028 108.75284,-23.55389 43.92414,2.53727 77.08927,14.20562 85.9746,30.24809 l 2.12437,3.83555 0.53235,84.28571 c 0.29279,46.35714 0.44453,129.76786 0.33719,185.35714 -0.21629,112.01593 0.16279,103.22653 -4.89694,113.53905 -2.7649,5.63528 -9.46708,12.57863 -14.54403,15.06737 l -3.57143,1.75073 -78.57143,0.12345 c -43.21428,0.0679 -79.375,-0.12468 -80.35714,-0.42797 z"
         style="opacity:0.99800002;fill:none;fill-opacity:1;fill-rule:nonzero;stroke:#ffffff;stroke-width:0;stroke-miterlimit:4;stroke-dasharray:none;stroke-opacity:0.77287065" />
      <path
         id="path4148"
         d="m 303.82209,745.69644 c -9.80734,-3.02858 -18.08768,-12.63143 -21.93158,-25.43443 -1.21307,-4.04041 -1.2892,-13.81396 -1.47025,-188.74669 l -0.19094,-184.48564 1.52464,-3.54411 c 1.00125,-2.32747 3.15974,-5.07869 6.28775,-8.01436 17.40981,-16.33933 62.93969,-26.20028 108.75284,-23.55389 43.92414,2.53727 77.08927,14.20562 85.9746,30.24809 l 2.12437,3.83555 0.53235,84.28571 c 0.29279,46.35714 0.44453,129.76786 0.33719,185.35714 -0.21629,112.01593 0.16279,103.22653 -4.89694,113.53905 -2.7649,5.63528 -9.46708,12.57863 -14.54403,15.06737 l -3.57143,1.75073 -78.57143,0.12345 c -43.21428,0.0679 -79.375,-0.12468 -80.35714,-0.42797 z"
         style="opacity:0.99800002;fill:none;fill-opacity:1;fill-rule:nonzero;stroke:#ffffff;stroke-width:0;stroke-miterlimit:4;stroke-dasharray:none;stroke-opacity:0.77287065" />
      <g
         id="g4319">
        <g
           id="g4315">
          <path
             id="rect4136"
             transform="matrix(0,2.9364926,-2.9364928,0,565.88879,166.16689)"
             d="M 58.542969 27.390625 C 53.452535 27.390625 49.353516 39.936161 49.353516 55.519531 L 49.353516 69.316406 C 49.353516 84.899777 53.452535 97.445312 58.542969 97.445312 L 182.2207 97.445312 C 187.31114 97.445312 191.4082 84.899777 191.4082 69.316406 L 191.4082 55.519531 C 191.4082 39.936161 187.31114 27.390625 182.2207 27.390625 L 58.542969 27.390625 z M 96.675781 32.056641 L 135.64648 32.091797 L 137.41211 41.945312 L 115.70117 42.048828 L 96.675781 32.056641 z M 138.70508 32.115234 L 167.14453 32.414062 L 161.50391 41.9375 L 140.47656 41.9375 L 138.70508 32.115234 z M 86.726562 35.146484 L 113.33789 44.386719 L 113.60547 80.21875 L 86.546875 89.443359 C 76.054013 62.29422 86.726562 35.146484 86.726562 35.146484 z M 176.66406 39.482422 L 176.49219 86.082031 L 165.42578 80.365234 L 165.59766 44.46875 L 176.66406 39.482422 z M 137.44141 82.550781 L 135.67578 92.404297 L 96.791016 92.548828 L 115.73242 82.578125 L 137.44141 82.550781 z M 140.50586 82.558594 L 161.5332 82.558594 L 167.17188 92.082031 L 138.73242 92.380859 L 140.50586 82.558594 z "
             style="opacity:0.99800002;fill:#ff5555;fill-opacity:1;fill-rule:nonzero;stroke:#ffffff;stroke-width:0;stroke-miterlimit:4;stroke-dasharray:none;stroke-opacity:0.77287065" />
          <path
             id="rect4138"
             transform="matrix(0,2.9364926,-2.9364928,0,565.88879,166.16689)"
             d="M 103.69531 27.132812 C 96.763976 27.132812 91.116078 31.217464 90.511719 36.460938 L 113.33789 44.386719 L 113.60547 80.21875 L 90.519531 88.089844 C 91.187404 93.281995 96.810793 97.308594 103.69531 97.308594 L 184.53516 97.308594 C 191.87233 97.308594 197.7793 92.734369 197.7793 87.050781 L 197.7793 37.392578 C 197.7793 31.70899 191.87233 27.132818 184.53516 27.132812 L 103.69531 27.132812 z M 96.675781 32.056641 L 135.64648 32.091797 L 137.41211 41.945312 L 115.70117 42.048828 L 96.675781 32.056641 z M 138.70508 32.115234 L 167.14453 32.414062 L 161.50391 41.9375 L 140.47656 41.9375 L 138.70508 32.115234 z M 176.66406 39.482422 L 176.49219 86.082031 L 165.42578 80.365234 L 165.59766 44.46875 L 176.66406 39.482422 z M 137.44141 82.550781 L 135.67578 92.404297 L 96.791016 92.548828 L 115.73242 82.578125 L 137.44141 82.550781 z M 140.50586 82.558594 L 161.5332 82.558594 L 167.17188 92.082031 L 138.73242 92.380859 L 140.50586 82.558594 z "
             style="opacity:0.99800002;fill:#ff5555;fill-opacity:1;fill-rule:nonzero;stroke:#ffffff;stroke-width:0;stroke-miterlimit:4;stroke-dasharray:none;stroke-opacity:0.77287065" />
        </g>
        <path
           style="fill:none;fill-rule:evenodd;stroke:#ffffff;stroke-width:1px;stroke-linecap:butt;stroke-linejoin:miter;stroke-opacity:1"
           d="m 279.71068,337.56407 c 11.61675,0 18.22075,0 28.22075,-5 10,-5 15,-18.60364 15,-18.60364"
           id="path4298" />
        <path
           style="fill:none;fill-rule:evenodd;stroke:#ffffff;stroke-width:1px;stroke-linecap:butt;stroke-linejoin:miter;stroke-opacity:1"
           d="m 485.4792,337.55068 c -11.61675,0 -18.22075,0 -28.22075,-5 -10,-5 -15,-18.60364 -15,-18.60364"
           id="path4298-1" />
      </g>
    </g>
    <g
       id="g1611"
       transform="matrix(0,0.22831338,-0.22831338,0,11.761749,281.5442)">
      <path
         id="path1597"
         d="M 0,0 H 48 V 48 H 0 Z"
         style="fill:none" />
      <path
         id="path1599"
         d="m 32,9.6 c 1.98,0 3.6,-1.61 3.6,-3.6 0,-1.99 -1.62,-3.6 -3.6,-3.6 -1.99,0 -3.6,1.61 -3.6,3.6 0,1.99 1.61,3.6 3.6,3.6 z M 38,24 c -5.52,0 -10,4.48 -10,10 0,5.52 4.48,10 10,10 5.52,0 10,-4.48 10,-10 0,-5.52 -4.48,-10 -10,-10 z m 0,17 c -3.87,0 -7,-3.13 -7,-7 0,-3.87 3.13,-7 7,-7 3.87,0 7,3.13 7,7 0,3.87 -3.13,7 -7,7 z M 29.6,20 H 38 V 16.4 H 31.6 L 27.73,9.87 C 27.14,8.87 26.05,8.2 24.8,8.2 c -0.94,0 -1.79,0.38 -2.4,1 L 15,16.59 c -0.62,0.62 -1,1.47 -1,2.41 0,1.26 0.67,2.32 1.7,2.94 L 22.4,26 V 36 H 26 V 23.04 L 21.5,19.7 26.14,15.04 Z M 10,24 C 4.48,24 0,28.48 0,34 0,39.52 4.48,44 10,44 15.52,44 20,39.52 20,34 20,28.48 15.52,24 10,24 Z m 0,17 c -3.87,0 -7,-3.13 -7,-7 0,-3.87 3.13,-7 7,-7 3.87,0 7,3.13 7,7 0,3.87 -3.13,7 -7,7 z"
         style="fill:#231f20;fill-opacity:1" />
    </g>
    <path
       style="fill:none;fill-opacity:1;fill-rule:evenodd;stroke:#231f20;stroke-width:1.32291663;stroke-linecap:butt;stroke-linejoin:miter;stroke-miterlimit:4;stroke-dasharray:5.29166667, 5.29166667;stroke-dashoffset:0;stroke-opacity:1"
       d="M 1.0299374,274.54935 H 51.276607"
       id="path5302" />
  </g>
</svg>
