<?xml version="1.0" encoding="UTF-8" standalone="no"?>
<svg
   xmlns:dc="http://purl.org/dc/elements/1.1/"
   xmlns:cc="http://creativecommons.org/ns#"
   xmlns:rdf="http://www.w3.org/1999/02/22-rdf-syntax-ns#"
   xmlns:svg="http://www.w3.org/2000/svg"
   xmlns="http://www.w3.org/2000/svg"
   xmlns:sodipodi="http://sodipodi.sourceforge.net/DTD/sodipodi-0.dtd"
   xmlns:inkscape="http://www.inkscape.org/namespaces/inkscape"
   id="svg8"
   version="1.1"
   viewBox="0 0 50.799999 50.800002"
   height="192"
   width="192"
   sodipodi:docname="logo.svg"
   inkscape:version="0.92.4 5da689c313, 2019-01-14"
   inkscape:export-xdpi="24"
   inkscape:export-ydpi="24">
  <sodipodi:namedview
     pagecolor="#ffffff"
     bordercolor="#666666"
     borderopacity="1"
     objecttolerance="10"
     gridtolerance="10"
     guidetolerance="10"
     inkscape:pageopacity="0"
     inkscape:pageshadow="2"
     inkscape:window-width="1596"
     inkscape:window-height="861"
     id="namedview903"
     showgrid="false"
     inkscape:zoom="3.1377863"
     inkscape:cx="45.830896"
     inkscape:cy="89.993967"
     inkscape:window-x="0"
     inkscape:window-y="37"
     inkscape:window-maximized="0"
     inkscape:current-layer="layer1" />
  <defs
     id="defs2" />
  <metadata
     id="metadata5">
    <rdf:RDF>
      <cc:Work
         rdf:about="">
        <dc:format>image/svg+xml</dc:format>
        <dc:type
           rdf:resource="http://purl.org/dc/dcmitype/StillImage" />
        <dc:title />
      </cc:Work>
    </rdf:RDF>
  </metadata>
  <g
     transform="translate(0,-246.19998)"
     id="layer1">
    <path
       inkscape:connector-curvature="0"
       id="path4286"
       d="m 17.909141,272.53907 h 25.062562 v 25.06256 H 17.909141 Z"
       style="fill:none;stroke-width:1.04427338" />
    <g
       style="fill:none;fill-rule:evenodd"
       transform="matrix(0.34312119,0,0,0.34312119,0.43793324,247.83884)"
       id="g248">
      <path
         style="fill:#ccd6e5"
         inkscape:connector-curvature="0"
         d="M 22.000398,99 C 32.493679,99 41,107.28264 41,117.5 41,127.71813 32.493679,136 22.000398,136 11.507118,136 3,127.71813 3,117.5 3,107.28264 11.507118,99 22.000398,99"
         id="path230" />
      <path
         style="stroke:#2e4369;stroke-width:5;stroke-linecap:round;stroke-linejoin:round"
         inkscape:connector-curvature="0"
         d="M 22.000398,99 C 32.493679,99 41,107.28264 41,117.5 41,127.71813 32.493679,136 22.000398,136 11.507118,136 3,127.71813 3,117.5 3,107.28264 11.507118,99 22.000398,99 Z"
         id="path232" />
      <path
         style="fill:#ccd6e5"
         inkscape:connector-curvature="0"
         d="m 96,99 c 10.49306,0 19,8.28264 19,18.5 0,10.21813 -8.50694,18.5 -19,18.5 C 85.506143,136 77,127.71813 77,117.5 77,107.28264 85.506143,99 96,99"
         id="path234" />
      <path
         style="stroke:#2e4369;stroke-width:5;stroke-linecap:round;stroke-linejoin:round"
         inkscape:connector-curvature="0"
         d="m 96,99 c 10.49306,0 19,8.28264 19,18.5 0,10.21813 -8.50694,18.5 -19,18.5 C 85.506143,136 77,127.71813 77,117.5 77,107.28264 85.506143,99 96,99 Z M 55.699657,117 33.171804,72 Z M 22,117 H 59.237005 C 59.237005,117 61.843759,97.50021 84,87.000262 66.312481,82.125708 30.750856,85.875184 22,117 Z"
         id="path236" />
      <path
         style="stroke:#2e4369;stroke-width:5;stroke-linecap:round;stroke-linejoin:round"
         inkscape:connector-curvature="0"
         d="m 96,116.97242 c -2.747392,0.27493 -5.281985,-1.53152 -5.981184,-4.25905 C 88.931259,108.82322 79.687405,69.55749 78.418209,65.112826 77.149772,60.667385 76.424734,54 67,54 M 26,71.5 h 19"
         id="path238" />
      <path
         style="fill:#ffcc66"
         inkscape:connector-curvature="0"
         d="m 84.033333,58 20.129997,-8.043636 c 2.73562,0.614825 5.53223,0.922629 8.33667,0.916363 16.87588,0 30.5,-10.894545 30.5,-24.436363 C 143,12.894546 129.37588,2 112.5,2 95.623333,2 82,12.894546 82,26.436364 c 0,6.821818 3.558333,13.032727 9.250885,17.512727 z"
         id="path240" />
      <path
         style="stroke:#2e4369;stroke-width:4;stroke-linecap:round;stroke-linejoin:round"
         inkscape:connector-curvature="0"
         d="m 84.033333,58 20.129997,-8.043636 c 2.73562,0.614825 5.53223,0.922629 8.33667,0.916363 16.87588,0 30.5,-10.894545 30.5,-24.436363 C 143,12.894546 129.37588,2 112.5,2 95.623333,2 82,12.894546 82,26.436364 c 0,6.821818 3.558333,13.032727 9.250885,17.512727 z"
         id="path242" />
      <path
         style="stroke:#2e4369;stroke-width:3;stroke-linecap:round;stroke-linejoin:round"
         inkscape:connector-curvature="0"
         d="M 112.5,30 V 10"
         id="path244" />
      <path
         style="fill:#2e4369"
         inkscape:connector-curvature="0"
         d="M 112.50038,35 C 113.88169,35 115,36.118902 115,37.5 115,38.880335 113.88169,40 112.50038,40 111.11907,40 110,38.880335 110,37.5 c 0,-1.381098 1.11907,-2.5 2.50038,-2.5 z"
         id="path246" />
    </g>
  </g>
</svg>
