<svg xmlns="http://www.w3.org/2000/svg" width="60px" height="55px">
  <g fill="none" fill-rule="evenodd">
    <path fill="#FC6" d="M2.93298182 54l19.13999998-7.6119761c2.6015637.5823829 5.2600727.8725231 7.9270182.867267 16.0459636 0 29-10.3115418 29-23.1281711C59 11.3115417 46.0459636 1 30 1 13.9529818 1 1 11.3115417 1 24.1271198c0 6.4566714 3.38298182 12.3351647 8.79596364 16.5758375L2.93298182 54z"/>
    <path stroke="#2E4369" stroke-linecap="round" stroke-linejoin="round" stroke-width="2" d="M2.93298182 54l19.13999998-7.6119761c2.6015637.5823829 5.2600727.8725231 7.9270182.867267 16.0459636 0 29-10.3115418 29-23.1281711C59 11.3115417 46.0459636 1 30 1 13.9529818 1 1 11.3115417 1 24.1271198c0 6.4566714 3.38298182 12.3351647 8.79596364 16.5758375L2.93298182 54zM30.5 29V10"/>
    <path fill="#2E4369" d="M30.5 34c.8281453 0 1.5.672 1.5 1.5003243C32 36.3286486 31.3281453 37 30.5 37s-1.5-.6713514-1.5-1.4996757S29.6718547 34 30.5 34z"/>
  </g>
</svg>
