<?xml version="1.0" encoding="UTF-8" standalone="no"?>
<svg
   xmlns:dc="http://purl.org/dc/elements/1.1/"
   xmlns:cc="http://creativecommons.org/ns#"
   xmlns:rdf="http://www.w3.org/1999/02/22-rdf-syntax-ns#"
   xmlns:svg="http://www.w3.org/2000/svg"
   xmlns="http://www.w3.org/2000/svg"
   id="svg8"
   version="1.1"
   viewBox="0 0 52.916666 26.458334"
   height="100"
   width="200">
  <defs
     id="defs2" />
  <metadata
     id="metadata5">
    <rdf:RDF>
      <cc:Work
         rdf:about="">
        <dc:format>image/svg+xml</dc:format>
        <dc:type
           rdf:resource="http://purl.org/dc/dcmitype/StillImage" />
        <dc:title></dc:title>
      </cc:Work>
    </rdf:RDF>
  </metadata>
  <g
     transform="matrix(0.9407631,0,0,0.94076314,-62.698317,-17.421275)"
     id="g4381">
    <g
       transform="matrix(1.1140552,0,0,1.1140552,-3.3978567,-6.8738791)"
       id="g6260" />
    <g
       transform="matrix(1.1140552,0,0,1.1140552,-3.3978567,-6.8738791)"
       id="g6262" />
    <g
       transform="matrix(1.1140552,0,0,1.1140552,-3.3978567,-6.8738791)"
       id="g6264" />
    <g
       transform="matrix(1.1140552,0,0,1.1140552,-3.3978567,-6.8738791)"
       id="g6266" />
    <g
       transform="matrix(1.1140552,0,0,1.1140552,-3.3978567,-6.8738791)"
       id="g6268" />
    <g
       transform="matrix(1.1140552,0,0,1.1140552,-3.3978567,-6.8738791)"
       id="g6270" />
    <g
       transform="matrix(1.1140552,0,0,1.1140552,-3.3978567,-6.8738791)"
       id="g6272" />
    <g
       transform="matrix(1.1140552,0,0,1.1140552,-3.3978567,-6.8738791)"
       id="g6274" />
    <g
       transform="matrix(1.1140552,0,0,1.1140552,-3.3978567,-6.8738791)"
       id="g6276" />
    <g
       transform="matrix(1.1140552,0,0,1.1140552,-3.3978567,-6.8738791)"
       id="g6278" />
    <g
       transform="matrix(1.1140552,0,0,1.1140552,-3.3978567,-6.8738791)"
       id="g6280" />
    <g
       transform="matrix(1.1140552,0,0,1.1140552,-3.3978567,-6.8738791)"
       id="g6282" />
    <g
       transform="matrix(1.1140552,0,0,1.1140552,-3.3978567,-6.8738791)"
       id="g6284" />
    <g
       transform="matrix(1.1140552,0,0,1.1140552,-3.3978567,-6.8738791)"
       id="g6286" />
    <g
       transform="matrix(1.1140552,0,0,1.1140552,-3.3978567,-6.8738791)"
       id="g6288" />
    <g
       transform="matrix(1.1140552,0,0,1.1140552,-70.354377,39.213078)"
       style="fill:#ffffff;stroke:#000000;stroke-opacity:1"
       id="g4175">
      <g
         style="fill:#231f20;fill-opacity:1;stroke:none"
         transform="matrix(0.09547544,0,0,0.09547544,8.6851351,5.1561065)"
         id="g4666">
        <g
           transform="translate(1218.1199,-359.71327)"
           style="fill:#231f20;fill-opacity:1;stroke:none"
           id="g4616">
          <path
             style="fill:#231f20;fill-opacity:1;stroke:none"
             d="m 193.455,277.068 -4.063,0 0,-13.097 c 0,-7.512 -6.93,-11.178 -12.21,-12.474 l -8.87,-16.68 c -0.61,-1.148 -1.741,-1.928 -3.031,-2.091 L 100.987,224.614 41.98,131.121 c -0.733,-1.161 -2.01,-1.865 -3.383,-1.865 l -34.597,0 c -2.209,0 -4,1.791 -4,4 l 0,179.547 c 0,1.061 0.421,2.078 1.171,2.829 0.75,0.75 1.768,1.171 2.829,1.171 l 54.244,0 c 2.233,22.782 21.492,40.643 44.848,40.643 23.36,0 42.623,-17.861 44.856,-40.643 l 45.508,-10e-4 c 7.461,0 13.53,-6.07 13.53,-13.532 l 0,-12.67 c -10e-4,-7.462 -6.07,-13.532 -13.531,-13.532 z m -90.364,62.377 c -14.925,0 -27.068,-12.145 -27.068,-27.073 0,-14.928 12.143,-27.072 27.068,-27.072 14.93,0 27.076,12.145 27.076,27.072 0,14.928 -12.146,27.073 -27.076,27.073 z"
             id="path4618" />
          <path
             style="fill:#231f20;fill-opacity:1;stroke:none"
             d="m 430.407,241.856 c -6.451,0 -12.647,1.105 -18.422,3.111 l -17.592,-37.339 24.674,0 c 2.189,0 3.971,1.826 3.971,4.015 l 0,0.591 c 0,2.189 -1.781,3.969 -3.971,3.969 -3.314,0 -6,2.687 -6,6 0,3.314 2.686,6 6,6 8.807,0 15.971,-7.163 15.971,-15.969 l 0,-0.591 c 0,-8.806 -7.164,-16.015 -15.971,-16.015 l -34.144,0 c -3.314,0 -6,2.687 -6,6 0,1.041 0.266,2.019 0.731,2.872 l 6.498,13.792 -66.29,0.002 -4.271,-10.214 -0.159,-0.452 6.196,0 c 3.313,0 6,-2.686 6,-6 0,-3.313 -2.687,-6 -6,-6 l -27.413,0 c -3.314,0 -6,2.687 -6,6 0,3.314 2.686,6 6,6 l 8.495,0 1.354,3.849 c 0.067,0.244 0.145,0.487 0.245,0.727 l 0.067,0.16 0.257,0.731 c 0.124,0.351 0.283,0.678 0.462,0.99 l 3.71,8.873 -12.955,23.342 c -6.741,-2.861 -14.149,-4.444 -21.922,-4.444 -31.042,0 -56.296,25.253 -56.296,56.294 0,31.041 25.254,56.295 56.296,56.295 31.042,0 56.297,-25.254 56.297,-56.295 0,-18.986 -9.458,-35.794 -23.899,-45.996 l 8.379,-15.093 25.755,61.598 c -2.759,2.803 -4.467,6.643 -4.467,10.876 0,8.556 6.961,15.517 15.517,15.517 8.556,0 15.516,-6.961 15.516,-15.517 0,-3.003 -0.872,-5.801 -2.354,-8.179 l 10.717,-15.104 c -0.829,3.838 -1.276,7.815 -1.276,11.897 0,31.041 25.254,56.295 56.296,56.295 31.04,0 56.293,-25.254 56.293,-56.295 -0.002,-31.04 -25.255,-56.293 -56.295,-56.293 z m -35.179,-4.301 -40.336,56.846 c -1.085,-0.243 -2.209,-0.381 -3.367,-0.382 l -26.644,-63.725 66.926,-0.002 3.421,7.263 z m -77.003,60.595 c 0,24.424 -19.871,44.295 -44.297,44.295 -24.425,0 -44.296,-19.871 -44.296,-44.295 0,-24.424 19.871,-44.294 44.296,-44.294 5.66,0 11.069,1.079 16.05,3.021 l -15.488,27.898 c -0.188,-0.008 -0.372,-0.028 -0.561,-0.028 -7.39,0 -13.402,6.012 -13.402,13.402 0,7.391 6.013,13.403 13.402,13.403 7.39,0 13.401,-6.013 13.401,-13.403 0,-2.802 -0.867,-5.404 -2.344,-7.557 l 15.482,-27.885 c 10.773,8.088 17.757,20.965 17.757,35.443 z m 112.182,44.295 c -24.425,0 -44.296,-19.871 -44.296,-44.295 0,-15.532 8.042,-29.212 20.175,-37.122 l 13.593,28.852 c -1.796,2.281 -2.877,5.149 -2.877,8.27 0,7.391 6.012,13.403 13.401,13.403 7.392,0 13.405,-6.013 13.405,-13.403 0,-7.279 -5.837,-13.208 -13.075,-13.386 L 417.13,255.891 c 4.193,-1.32 8.652,-2.035 13.276,-2.035 24.423,0 44.293,19.87 44.293,44.294 10e-4,24.424 -19.869,44.295 -44.292,44.295 z"
             id="path4620" />
          <g
             style="fill:#231f20;fill-opacity:1;stroke:none"
             id="g4622">
            <path
               style="fill:#231f20;fill-opacity:1;stroke:none"
               d="m 185.563,174.784 c -0.963,-3.169 -4.31,-4.957 -7.486,-3.995 -3.17,0.964 -4.959,4.316 -3.995,7.486 l 24.761,81.435 c 0.787,2.588 3.166,4.256 5.739,4.256 0.578,0 1.166,-0.084 1.748,-0.261 3.17,-0.964 4.959,-4.316 3.995,-7.486 l -24.762,-81.435 z"
               id="path4624" />
            <path
               style="fill:#231f20;fill-opacity:1;stroke:none"
               d="m 269.934,209.279 c -1.97,-2.665 -5.728,-3.228 -8.392,-1.259 l -37.966,28.062 c -2.665,1.97 -3.229,5.727 -1.259,8.392 1.177,1.592 2.991,2.434 4.83,2.434 1.239,0 2.489,-0.383 3.562,-1.175 l 37.966,-28.062 c 2.665,-1.97 3.228,-5.727 1.259,-8.392 z"
               id="path4626" />
            <path
               style="fill:#231f20;fill-opacity:1;stroke:none"
               d="m 239.516,140.802 c 0.684,-3.243 -1.391,-6.425 -4.633,-7.109 -3.248,-0.683 -6.425,1.391 -7.109,4.633 l -17.057,80.885 c -0.684,3.243 1.391,6.425 4.633,7.109 0.418,0.088 0.834,0.13 1.244,0.13 2.776,0 5.27,-1.938 5.865,-4.763 l 17.057,-80.885 z"
               id="path4628" />
          </g>
        </g>
        <g
           style="fill:#231f20;fill-opacity:1;stroke:none"
           id="g4630" />
        <g
           style="fill:#231f20;fill-opacity:1;stroke:none"
           id="g4632" />
        <g
           style="fill:#231f20;fill-opacity:1;stroke:none"
           id="g4634" />
        <g
           style="fill:#231f20;fill-opacity:1;stroke:none"
           id="g4636" />
        <g
           style="fill:#231f20;fill-opacity:1;stroke:none"
           id="g4638" />
        <g
           style="fill:#231f20;fill-opacity:1;stroke:none"
           id="g4640" />
        <g
           style="fill:#231f20;fill-opacity:1;stroke:none"
           id="g4642" />
        <g
           style="fill:#231f20;fill-opacity:1;stroke:none"
           id="g4644" />
        <g
           style="fill:#231f20;fill-opacity:1;stroke:none"
           id="g4646" />
        <g
           style="fill:#231f20;fill-opacity:1;stroke:none"
           id="g4648" />
        <g
           style="fill:#231f20;fill-opacity:1;stroke:none"
           id="g4650" />
        <g
           style="fill:#231f20;fill-opacity:1;stroke:none"
           id="g4652" />
        <g
           style="fill:#231f20;fill-opacity:1;stroke:none"
           id="g4654" />
        <g
           style="fill:#231f20;fill-opacity:1;stroke:none"
           id="g4656" />
        <g
           style="fill:#231f20;fill-opacity:1;stroke:none"
           id="g4658" />
      </g>
    </g>
  </g>
</svg>
