<?xml version="1.0" encoding="UTF-8" standalone="no"?>
<svg
   xmlns:dc="http://purl.org/dc/elements/1.1/"
   xmlns:cc="http://creativecommons.org/ns#"
   xmlns:rdf="http://www.w3.org/1999/02/22-rdf-syntax-ns#"
   xmlns:svg="http://www.w3.org/2000/svg"
   xmlns="http://www.w3.org/2000/svg"
   xmlns:sodipodi="http://sodipodi.sourceforge.net/DTD/sodipodi-0.dtd"
   xmlns:inkscape="http://www.inkscape.org/namespaces/inkscape"
   xml:space="preserve"
   style="enable-background:new 0 0 64.001 60;"
   viewBox="0 0 64.001 60"
   height="60px"
   width="64.001px"
   y="0px"
   x="0px"
   id="Layer_1"
   version="1.1"
   inkscape:version="0.91 r13725"
   sodipodi:docname="gcumMarker.svg"><sodipodi:namedview
     pagecolor="#ffffff"
     bordercolor="#666666"
     borderopacity="1"
     objecttolerance="10"
     gridtolerance="10"
     guidetolerance="10"
     inkscape:pageopacity="0"
     inkscape:pageshadow="2"
     inkscape:window-width="1923"
     inkscape:window-height="1041"
     id="namedview4165"
     showgrid="false"
     inkscape:zoom="8"
     inkscape:cx="15.324518"
     inkscape:cy="34.227055"
     inkscape:window-x="0"
     inkscape:window-y="0"
     inkscape:window-maximized="0"
     inkscape:current-layer="g4175" /><metadata
     id="metadata6294"><rdf:RDF><cc:Work
         rdf:about=""><dc:format>image/svg+xml</dc:format><dc:type
           rdf:resource="http://purl.org/dc/dcmitype/StillImage" /><dc:title /></cc:Work></rdf:RDF></metadata><defs
     id="defs6292" /><g
     id="g6260"
     transform="matrix(1.1140552,0,0,1.1140552,-3.3978567,-6.8738791)" /><g
     id="g6262"
     transform="matrix(1.1140552,0,0,1.1140552,-3.3978567,-6.8738791)" /><g
     id="g6264"
     transform="matrix(1.1140552,0,0,1.1140552,-3.3978567,-6.8738791)" /><g
     id="g6266"
     transform="matrix(1.1140552,0,0,1.1140552,-3.3978567,-6.8738791)" /><g
     id="g6268"
     transform="matrix(1.1140552,0,0,1.1140552,-3.3978567,-6.8738791)" /><g
     id="g6270"
     transform="matrix(1.1140552,0,0,1.1140552,-3.3978567,-6.8738791)" /><g
     id="g6272"
     transform="matrix(1.1140552,0,0,1.1140552,-3.3978567,-6.8738791)" /><g
     id="g6274"
     transform="matrix(1.1140552,0,0,1.1140552,-3.3978567,-6.8738791)" /><g
     id="g6276"
     transform="matrix(1.1140552,0,0,1.1140552,-3.3978567,-6.8738791)" /><g
     id="g6278"
     transform="matrix(1.1140552,0,0,1.1140552,-3.3978567,-6.8738791)" /><g
     id="g6280"
     transform="matrix(1.1140552,0,0,1.1140552,-3.3978567,-6.8738791)" /><g
     id="g6282"
     transform="matrix(1.1140552,0,0,1.1140552,-3.3978567,-6.8738791)" /><g
     id="g6284"
     transform="matrix(1.1140552,0,0,1.1140552,-3.3978567,-6.8738791)" /><g
     id="g6286"
     transform="matrix(1.1140552,0,0,1.1140552,-3.3978567,-6.8738791)" /><g
     id="g6288"
     transform="matrix(1.1140552,0,0,1.1140552,-3.3978567,-6.8738791)" /><g
     id="g4175"
     style="fill:#ffffff;stroke:#000000;stroke-opacity:1"
     transform="matrix(1.1140552,0,0,1.1140552,-3.3978567,-6.8738791)"><path
       style="fill:#ffffff;fill-opacity:1;stroke:#000000;stroke-width:1;stroke-miterlimit:4;stroke-dasharray:none;stroke-opacity:1"
       d="M 31.900595,7.540345 C 16.429597,7.5408504 3.7633026,12.208019 3.7638758,27.679017 3.7805174,42.386984 13.481637,44.266947 28.154501,45.282648 l 3.710938,13.369025 2.917968,-13.324978 C 49.48909,44.336591 59.787139,42.417993 59.789267,27.679017 59.78984,12.207256 47.372356,7.5397717 31.900595,7.540345 Z"
       id="path4169"
       inkscape:connector-curvature="0"
       sodipodi:nodetypes="scccccs" /></g><g
     id="layer1"
     transform="matrix(1.3531368,0,0,1.3531368,-27.096012,-400.13443)"><g
       transform="matrix(0,-0.09010182,0.09010182,0,-3.8056259,347.0907)"
       id="layer1-6"><path
         id="path4144"
         d="m 303.82209,745.69644 c -9.80734,-3.02858 -18.08768,-12.63143 -21.93158,-25.43443 -1.21307,-4.04041 -1.2892,-13.81396 -1.47025,-188.74669 l -0.19094,-184.48564 1.52464,-3.54411 c 1.00125,-2.32747 3.15974,-5.07869 6.28775,-8.01436 17.40981,-16.33933 62.93969,-26.20028 108.75284,-23.55389 43.92414,2.53727 77.08927,14.20562 85.9746,30.24809 l 2.12437,3.83555 0.53235,84.28571 c 0.29279,46.35714 0.44453,129.76786 0.33719,185.35714 -0.21629,112.01593 0.16279,103.22653 -4.89694,113.53905 -2.7649,5.63528 -9.46708,12.57863 -14.54403,15.06737 l -3.57143,1.75073 -78.57143,0.12345 c -43.21428,0.0679 -79.375,-0.12468 -80.35714,-0.42797 z"
         style="opacity:0.99800002;fill:none;fill-opacity:1;fill-rule:nonzero;stroke:#ffffff;stroke-width:0;stroke-miterlimit:4;stroke-dasharray:none;stroke-opacity:0.77287065"
         inkscape:connector-curvature="0" /><path
         id="path4146"
         d="m 303.82209,745.69644 c -9.80734,-3.02858 -18.08768,-12.63143 -21.93158,-25.43443 -1.21307,-4.04041 -1.2892,-13.81396 -1.47025,-188.74669 l -0.19094,-184.48564 1.52464,-3.54411 c 1.00125,-2.32747 3.15974,-5.07869 6.28775,-8.01436 17.40981,-16.33933 62.93969,-26.20028 108.75284,-23.55389 43.92414,2.53727 77.08927,14.20562 85.9746,30.24809 l 2.12437,3.83555 0.53235,84.28571 c 0.29279,46.35714 0.44453,129.76786 0.33719,185.35714 -0.21629,112.01593 0.16279,103.22653 -4.89694,113.53905 -2.7649,5.63528 -9.46708,12.57863 -14.54403,15.06737 l -3.57143,1.75073 -78.57143,0.12345 c -43.21428,0.0679 -79.375,-0.12468 -80.35714,-0.42797 z"
         style="opacity:0.99800002;fill:none;fill-opacity:1;fill-rule:nonzero;stroke:#ffffff;stroke-width:0;stroke-miterlimit:4;stroke-dasharray:none;stroke-opacity:0.77287065"
         inkscape:connector-curvature="0" /><path
         id="path4148"
         d="m 303.82209,745.69644 c -9.80734,-3.02858 -18.08768,-12.63143 -21.93158,-25.43443 -1.21307,-4.04041 -1.2892,-13.81396 -1.47025,-188.74669 l -0.19094,-184.48564 1.52464,-3.54411 c 1.00125,-2.32747 3.15974,-5.07869 6.28775,-8.01436 17.40981,-16.33933 62.93969,-26.20028 108.75284,-23.55389 43.92414,2.53727 77.08927,14.20562 85.9746,30.24809 l 2.12437,3.83555 0.53235,84.28571 c 0.29279,46.35714 0.44453,129.76786 0.33719,185.35714 -0.21629,112.01593 0.16279,103.22653 -4.89694,113.53905 -2.7649,5.63528 -9.46708,12.57863 -14.54403,15.06737 l -3.57143,1.75073 -78.57143,0.12345 c -43.21428,0.0679 -79.375,-0.12468 -80.35714,-0.42797 z"
         style="opacity:0.99800002;fill:none;fill-opacity:1;fill-rule:nonzero;stroke:#ffffff;stroke-width:0;stroke-miterlimit:4;stroke-dasharray:none;stroke-opacity:0.77287065"
         inkscape:connector-curvature="0" /><g
         id="g4319"><g
           id="g4315"><path
             id="rect4136"
             d="m 58.542969,27.390625 c -5.090434,0 -9.189453,12.545536 -9.189453,28.128906 l 0,13.796875 c 0,15.583371 4.099019,28.128906 9.189453,28.128906 l 123.677731,0 c 5.09044,0 9.1875,-12.545535 9.1875,-28.128906 l 0,-13.796875 c 0,-15.58337 -4.09706,-28.128906 -9.1875,-28.128906 l -123.677731,0 z m 38.132812,4.666016 38.970699,0.03516 1.76563,9.853515 -21.71094,0.103516 -19.025389,-9.992187 z m 42.029299,0.05859 28.43945,0.298828 -5.64062,9.523438 -21.02735,0 -1.77148,-9.822266 z m -51.978518,3.03125 26.611328,9.240235 0.26758,35.832031 -27.058595,9.224609 C 76.054013,62.29422 86.726562,35.146484 86.726562,35.146484 Z m 89.937498,4.335938 -0.17187,46.599609 -11.06641,-5.716797 0.17188,-35.896484 11.0664,-4.986328 z m -39.22265,43.068359 -1.76563,9.853516 -38.884764,0.144531 18.941404,-9.970703 21.70899,-0.02734 z m 3.06445,0.0078 21.02734,0 5.63868,9.523437 -28.43946,0.298828 1.77344,-9.822265 z"
             style="opacity:0.99800002;fill:#ff5555;fill-opacity:1;fill-rule:nonzero;stroke:#ffffff;stroke-width:0;stroke-miterlimit:4;stroke-dasharray:none;stroke-opacity:0.77287065"
             inkscape:connector-curvature="0"
             transform="matrix(0,2.9364926,-2.9364928,0,565.88879,166.16689)" /><path
             id="rect4138"
             transform="matrix(0,2.9364926,-2.9364928,0,565.88879,166.16689)"
             d="m 103.69531,27.132812 c -6.931334,0 -12.579232,4.084652 -13.183591,9.328126 l 22.826171,7.925781 0.26758,35.832031 -23.085939,7.871094 c 0.667873,5.192151 6.291262,9.21875 13.175779,9.21875 l 80.83985,0 c 7.33717,0 13.24414,-4.574225 13.24414,-10.257813 l 0,-49.658203 c 0,-5.683588 -5.90697,-10.25976 -13.24414,-10.259766 l -80.83985,0 z m -7.019529,4.923829 38.970699,0.03516 1.76563,9.853515 -21.71094,0.103516 -19.025389,-9.992187 z m 42.029299,0.05859 28.43945,0.298828 -5.64062,9.523438 -21.02735,0 -1.77148,-9.822266 z m 37.95898,7.367188 -0.17187,46.599609 -11.06641,-5.716797 0.17188,-35.896484 11.0664,-4.986328 z m -39.22265,43.068359 -1.76563,9.853516 -38.884764,0.144531 18.941404,-9.970703 21.70899,-0.02734 z m 3.06445,0.0078 21.02734,0 5.63868,9.523437 -28.43946,0.298828 1.77344,-9.822265 z"
             style="opacity:0.99800002;fill:#ff5555;fill-opacity:1;fill-rule:nonzero;stroke:#ffffff;stroke-width:0;stroke-miterlimit:4;stroke-dasharray:none;stroke-opacity:0.77287065"
             inkscape:connector-curvature="0" /></g><path
           style="fill:none;fill-rule:evenodd;stroke:#ffffff;stroke-width:1px;stroke-linecap:butt;stroke-linejoin:miter;stroke-opacity:1"
           d="m 279.71068,337.56407 c 11.61675,0 18.22075,0 28.22075,-5 10,-5 15,-18.60364 15,-18.60364"
           id="path4298"
           inkscape:connector-curvature="0" /><path
           style="fill:none;fill-rule:evenodd;stroke:#ffffff;stroke-width:1px;stroke-linecap:butt;stroke-linejoin:miter;stroke-opacity:1"
           d="m 485.4792,337.55068 c -11.61675,0 -18.22075,0 -28.22075,-5 -10,-5 -15,-18.60364 -15,-18.60364"
           id="path4298-1"
           inkscape:connector-curvature="0" /></g></g></g></svg>