<?xml version="1.0" encoding="UTF-8" standalone="no"?>
<svg
   xmlns:dc="http://purl.org/dc/elements/1.1/"
   xmlns:cc="http://creativecommons.org/ns#"
   xmlns:rdf="http://www.w3.org/1999/02/22-rdf-syntax-ns#"
   xmlns:svg="http://www.w3.org/2000/svg"
   xmlns="http://www.w3.org/2000/svg"
   xmlns:sodipodi="http://sodipodi.sourceforge.net/DTD/sodipodi-0.dtd"
   xmlns:inkscape="http://www.inkscape.org/namespaces/inkscape"
   id="svg8"
   version="1.1"
   viewBox="0 0 52.916666 26.458334"
   height="100"
   width="200"
   sodipodi:docname="obstacle.svg"
   inkscape:version="0.92.2 5c3e80d, 2017-08-06">
  <sodipodi:namedview
     pagecolor="#ffffff"
     bordercolor="#666666"
     borderopacity="1"
     objecttolerance="10"
     gridtolerance="10"
     guidetolerance="10"
     inkscape:pageopacity="0"
     inkscape:pageshadow="2"
     inkscape:window-width="1916"
     inkscape:window-height="1041"
     id="namedview884"
     showgrid="false"
     inkscape:zoom="3.435"
     inkscape:cx="22.296447"
     inkscape:cy="16.085255"
     inkscape:window-x="0"
     inkscape:window-y="37"
     inkscape:window-maximized="0"
     inkscape:current-layer="layer1" />
  <defs
     id="defs2" />
  <metadata
     id="metadata5">
    <rdf:RDF>
      <cc:Work
         rdf:about="">
        <dc:format>image/svg+xml</dc:format>
        <dc:type
           rdf:resource="http://purl.org/dc/dcmitype/StillImage" />
        <dc:title />
      </cc:Work>
    </rdf:RDF>
  </metadata>
  <g
     transform="translate(0,-270.54165)"
     id="layer1">
    <g
       id="layer1-6"
       transform="matrix(0,-0.09010182,0.09010182,0,-14.971939,321.52926)">
      <rect
         style="opacity:0.99800002;fill:#231f20;fill-opacity:1;fill-rule:nonzero;stroke:#ffffff;stroke-width:0;stroke-miterlimit:4;stroke-dasharray:none;stroke-opacity:0.77287065"
         id="rect4136"
         width="205.71428"
         height="417.14291"
         x="279.74295"
         y="311.09451"
         ry="26.981987"
         rx="82.600098" />
      <rect
         style="opacity:0.99800002;fill:#231f20;fill-opacity:1;fill-rule:nonzero;stroke:#ffffff;stroke-width:0;stroke-miterlimit:4;stroke-dasharray:none;stroke-opacity:0.77287065"
         id="rect4138"
         width="206.07112"
         height="315.1676"
         x="280.14145"
         y="431.77679"
         rx="30.126019"
         ry="38.8909" />
      <path
         style="fill:none;fill-rule:evenodd;stroke:#231f20;stroke-width:1px;stroke-linecap:butt;stroke-linejoin:miter;stroke-opacity:1"
         d="M 331.42857,377.36221 C 378.57143,363.79078 450,373.07649 450,373.07649 l -8.57143,60 h -100 l -9.28572,-52.85714 h 1.42858 z"
         id="path4140" />
      <path
         style="fill:none;fill-rule:evenodd;stroke:#231f20;stroke-width:1px;stroke-linecap:butt;stroke-linejoin:miter;stroke-opacity:1"
         d="m 325.10647,448.44447 c 51.42857,-25 124.28571,-7.85714 124.28571,-7.85714 l -22.85714,70 -80,-0.71429 z"
         id="path4142" />
      <path
         style="opacity:0.99800002;fill:none;fill-opacity:1;fill-rule:nonzero;stroke:#ffffff;stroke-width:0;stroke-miterlimit:4;stroke-dasharray:none;stroke-opacity:0.77287065"
         d="m 303.82209,745.69644 c -9.80734,-3.02858 -18.08768,-12.63143 -21.93158,-25.43443 -1.21307,-4.04041 -1.2892,-13.81396 -1.47025,-188.74669 l -0.19094,-184.48564 1.52464,-3.54411 c 1.00125,-2.32747 3.15974,-5.07869 6.28775,-8.01436 17.40981,-16.33933 62.93969,-26.20028 108.75284,-23.55389 43.92414,2.53727 77.08927,14.20562 85.9746,30.24809 l 2.12437,3.83555 0.53235,84.28571 c 0.29279,46.35714 0.44453,129.76786 0.33719,185.35714 -0.21629,112.01593 0.16279,103.22653 -4.89694,113.53905 -2.7649,5.63528 -9.46708,12.57863 -14.54403,15.06737 l -3.57143,1.75073 -78.57143,0.12345 c -43.21428,0.0679 -79.375,-0.12468 -80.35714,-0.42797 z"
         id="path4144" />
      <path
         style="opacity:0.99800002;fill:none;fill-opacity:1;fill-rule:nonzero;stroke:#ffffff;stroke-width:0;stroke-miterlimit:4;stroke-dasharray:none;stroke-opacity:0.77287065"
         d="m 303.82209,745.69644 c -9.80734,-3.02858 -18.08768,-12.63143 -21.93158,-25.43443 -1.21307,-4.04041 -1.2892,-13.81396 -1.47025,-188.74669 l -0.19094,-184.48564 1.52464,-3.54411 c 1.00125,-2.32747 3.15974,-5.07869 6.28775,-8.01436 17.40981,-16.33933 62.93969,-26.20028 108.75284,-23.55389 43.92414,2.53727 77.08927,14.20562 85.9746,30.24809 l 2.12437,3.83555 0.53235,84.28571 c 0.29279,46.35714 0.44453,129.76786 0.33719,185.35714 -0.21629,112.01593 0.16279,103.22653 -4.89694,113.53905 -2.7649,5.63528 -9.46708,12.57863 -14.54403,15.06737 l -3.57143,1.75073 -78.57143,0.12345 c -43.21428,0.0679 -79.375,-0.12468 -80.35714,-0.42797 z"
         id="path4146" />
      <path
         style="opacity:0.99800002;fill:none;fill-opacity:1;fill-rule:nonzero;stroke:#ffffff;stroke-width:0;stroke-miterlimit:4;stroke-dasharray:none;stroke-opacity:0.77287065"
         d="m 303.82209,745.69644 c -9.80734,-3.02858 -18.08768,-12.63143 -21.93158,-25.43443 -1.21307,-4.04041 -1.2892,-13.81396 -1.47025,-188.74669 l -0.19094,-184.48564 1.52464,-3.54411 c 1.00125,-2.32747 3.15974,-5.07869 6.28775,-8.01436 17.40981,-16.33933 62.93969,-26.20028 108.75284,-23.55389 43.92414,2.53727 77.08927,14.20562 85.9746,30.24809 l 2.12437,3.83555 0.53235,84.28571 c 0.29279,46.35714 0.44453,129.76786 0.33719,185.35714 -0.21629,112.01593 0.16279,103.22653 -4.89694,113.53905 -2.7649,5.63528 -9.46708,12.57863 -14.54403,15.06737 l -3.57143,1.75073 -78.57143,0.12345 c -43.21428,0.0679 -79.375,-0.12468 -80.35714,-0.42797 z"
         id="path4148" />
      <path
         style="fill:#ffffff;fill-opacity:1;fill-rule:evenodd;stroke:#231f20;stroke-width:1.2476511px;stroke-linecap:butt;stroke-linejoin:miter;stroke-opacity:1"
         d="m 303.24036,420.31238 c 79.72325,-30.81221 159.43908,0.52898 159.43908,0.52898 l -27.13272,78.13931 -105.21688,0.7877 z"
         id="path4152" />
      <path
         style="fill:#ffffff;fill-opacity:1;fill-rule:evenodd;stroke:#231f20;stroke-width:1px;stroke-linecap:butt;stroke-linejoin:miter;stroke-opacity:1"
         d="m 294.12237,450.39219 0.42244,114.18283 28.93312,5.1884 -0.0784,-63.74925 z"
         id="path4156" />
      <path
         style="fill:#ffffff;fill-opacity:1;fill-rule:evenodd;stroke:#231f20;stroke-width:1px;stroke-linecap:butt;stroke-linejoin:miter;stroke-opacity:1"
         d="m 295.49018,657.06797 -0.87993,-83.51205 28.84382,5.20489 10e-6,61.74557 z"
         id="path4156-17" />
      <path
         style="fill:#ffffff;fill-opacity:1;fill-rule:evenodd;stroke:#231f20;stroke-width:1px;stroke-linecap:butt;stroke-linejoin:miter;stroke-opacity:1"
         d="m 313.11041,684.43623 136.84084,0.50508 -14.64285,-32.5 -105.41227,-0.50509 z"
         id="path4152-7" />
      <path
         style="fill:#ffffff;fill-opacity:1;fill-rule:evenodd;stroke:#231f20;stroke-width:1px;stroke-linecap:butt;stroke-linejoin:miter;stroke-opacity:1"
         d="m 471.75636,450.05562 -0.10677,114.43537 -28.93312,5.1884 -0.30424,-63.75625 z"
         id="path4156-8" />
      <path
         style="fill:#ffffff;fill-opacity:1;fill-rule:evenodd;stroke:#231f20;stroke-width:1px;stroke-linecap:butt;stroke-linejoin:miter;stroke-opacity:1"
         d="m 470.70422,656.98394 0.87993,-83.51205 -28.84382,5.20489 -10e-6,61.74557 z"
         id="path4156-17-0" />
      <path
         style="fill:none;fill-rule:evenodd;stroke:#ffffff;stroke-width:1px;stroke-linecap:butt;stroke-linejoin:miter;stroke-opacity:1"
         d="m 279.71068,337.56407 c 11.61675,0 18.22075,0 28.22075,-5 10,-5 15,-18.60364 15,-18.60364"
         id="path4298" />
      <path
         style="fill:none;fill-rule:evenodd;stroke:#ffffff;stroke-width:1px;stroke-linecap:butt;stroke-linejoin:miter;stroke-opacity:1"
         d="m 485.4792,337.55068 c -11.61675,0 -18.22075,0 -28.22075,-5 -10,-5 -15,-18.60364 -15,-18.60364"
         id="path4298-1" />
    </g>
    <g
       transform="matrix(0,0.22831338,-0.22831338,0,11.761749,281.5442)"
       id="g1611">
      <path
         style="fill:none"
         d="M 0,0 H 48 V 48 H 0 Z"
         id="path1597"
         inkscape:connector-curvature="0" />
      <path
         style="fill:#231f20;fill-opacity:1"
         d="m 32,9.6 c 1.98,0 3.6,-1.61 3.6,-3.6 0,-1.99 -1.62,-3.6 -3.6,-3.6 -1.99,0 -3.6,1.61 -3.6,3.6 0,1.99 1.61,3.6 3.6,3.6 z M 38,24 c -5.52,0 -10,4.48 -10,10 0,5.52 4.48,10 10,10 5.52,0 10,-4.48 10,-10 0,-5.52 -4.48,-10 -10,-10 z m 0,17 c -3.87,0 -7,-3.13 -7,-7 0,-3.87 3.13,-7 7,-7 3.87,0 7,3.13 7,7 0,3.87 -3.13,7 -7,7 z M 29.6,20 H 38 V 16.4 H 31.6 L 27.73,9.87 C 27.14,8.87 26.05,8.2 24.8,8.2 c -0.94,0 -1.79,0.38 -2.4,1 L 15,16.59 c -0.62,0.62 -1,1.47 -1,2.41 0,1.26 0.67,2.32 1.7,2.94 L 22.4,26 V 36 H 26 V 23.04 L 21.5,19.7 26.14,15.04 Z M 10,24 C 4.48,24 0,28.48 0,34 0,39.52 4.48,44 10,44 15.52,44 20,39.52 20,34 20,28.48 15.52,24 10,24 Z m 0,17 c -3.87,0 -7,-3.13 -7,-7 0,-3.87 3.13,-7 7,-7 3.87,0 7,3.13 7,7 0,3.87 -3.13,7 -7,7 z"
         id="path1599"
         inkscape:connector-curvature="0" />
    </g>
    <path
       id="path5302"
       d="M 1.0299374,274.54935 H 51.276607"
       style="fill:none;fill-opacity:1;fill-rule:evenodd;stroke:#231f20;stroke-width:1.32291663;stroke-linecap:butt;stroke-linejoin:miter;stroke-miterlimit:4;stroke-dasharray:5.29166667, 5.29166667;stroke-dashoffset:0;stroke-opacity:1" />
  </g>
</svg>
