<?xml version="1.0" encoding="UTF-8" standalone="no"?>
<svg
   xmlns:dc="http://purl.org/dc/elements/1.1/"
   xmlns:cc="http://creativecommons.org/ns#"
   xmlns:rdf="http://www.w3.org/1999/02/22-rdf-syntax-ns#"
   xmlns:svg="http://www.w3.org/2000/svg"
   xmlns="http://www.w3.org/2000/svg"
   version="1.1"
   id="Layer_1"
   x="0px"
   y="0px"
   width="64.001px"
   height="60px"
   viewBox="0 0 64.001 60"
   style="enable-background:new 0 0 64.001 60;"
   xml:space="preserve"><metadata
     id="metadata6294"><rdf:RDF><cc:Work
         rdf:about=""><dc:format>image/svg+xml</dc:format><dc:type
           rdf:resource="http://purl.org/dc/dcmitype/StillImage" /><dc:title></dc:title></cc:Work></rdf:RDF></metadata><defs
     id="defs6292" /><g
     transform="matrix(1.1140552,0,0,1.1140552,-3.3978567,-6.8738791)"
     id="g6260" /><g
     transform="matrix(1.1140552,0,0,1.1140552,-3.3978567,-6.8738791)"
     id="g6262" /><g
     transform="matrix(1.1140552,0,0,1.1140552,-3.3978567,-6.8738791)"
     id="g6264" /><g
     transform="matrix(1.1140552,0,0,1.1140552,-3.3978567,-6.8738791)"
     id="g6266" /><g
     transform="matrix(1.1140552,0,0,1.1140552,-3.3978567,-6.8738791)"
     id="g6268" /><g
     transform="matrix(1.1140552,0,0,1.1140552,-3.3978567,-6.8738791)"
     id="g6270" /><g
     transform="matrix(1.1140552,0,0,1.1140552,-3.3978567,-6.8738791)"
     id="g6272" /><g
     transform="matrix(1.1140552,0,0,1.1140552,-3.3978567,-6.8738791)"
     id="g6274" /><g
     transform="matrix(1.1140552,0,0,1.1140552,-3.3978567,-6.8738791)"
     id="g6276" /><g
     transform="matrix(1.1140552,0,0,1.1140552,-3.3978567,-6.8738791)"
     id="g6278" /><g
     transform="matrix(1.1140552,0,0,1.1140552,-3.3978567,-6.8738791)"
     id="g6280" /><g
     transform="matrix(1.1140552,0,0,1.1140552,-3.3978567,-6.8738791)"
     id="g6282" /><g
     transform="matrix(1.1140552,0,0,1.1140552,-3.3978567,-6.8738791)"
     id="g6284" /><g
     transform="matrix(1.1140552,0,0,1.1140552,-3.3978567,-6.8738791)"
     id="g6286" /><g
     transform="matrix(1.1140552,0,0,1.1140552,-3.3978567,-6.8738791)"
     id="g6288" /><g
     transform="matrix(1.1140552,0,0,1.1140552,-3.3978567,-6.8738791)"
     style="fill:#ffffff;stroke:#000000;stroke-opacity:1"
     id="g4175"><path
       id="path4169"
       d="M 31.900595,7.540345 C 16.429597,7.5408504 3.7633026,12.208019 3.7638758,27.679017 3.7805174,42.386984 13.481637,44.266947 28.154501,45.282648 l 3.710938,13.369025 2.917968,-13.324978 C 49.48909,44.336591 59.787139,42.417993 59.789267,27.679017 59.78984,12.207256 47.372356,7.5397717 31.900595,7.540345 Z"
       style="fill:#ffffff;fill-opacity:1;stroke:#231f20;stroke-width:1;stroke-miterlimit:4;stroke-dasharray:none;stroke-opacity:1" /><g
       style="fill:#231f20;fill-opacity:1;stroke:none;stroke-opacity:1"
       transform="matrix(1.3136345,0,0,1.3136345,16.010715,11.025868)"
       id="g5660"><path
         style="fill:#231f20;fill-opacity:1;stroke:none;stroke-opacity:1"
         d="M 1,21 23,21 12,2 1,21 Z m 12,-3 -2,0 0,-2 2,0 0,2 z m 0,-4 -2,0 0,-4 2,0 0,4 z"
         id="path5652" /></g></g></svg>