<?xml version="1.0" encoding="UTF-8" standalone="no"?>
<svg
   xmlns:dc="http://purl.org/dc/elements/1.1/"
   xmlns:cc="http://creativecommons.org/ns#"
   xmlns:rdf="http://www.w3.org/1999/02/22-rdf-syntax-ns#"
   xmlns:svg="http://www.w3.org/2000/svg"
   xmlns="http://www.w3.org/2000/svg"
   id="svg8"
   version="1.1"
   viewBox="0 0 52.916666 26.458334"
   height="100"
   width="200">
  <defs
     id="defs2" />
  <metadata
     id="metadata5">
    <rdf:RDF>
      <cc:Work
         rdf:about="">
        <dc:format>image/svg+xml</dc:format>
        <dc:type
           rdf:resource="http://purl.org/dc/dcmitype/StillImage" />
        <dc:title></dc:title>
      </cc:Work>
    </rdf:RDF>
  </metadata>
  <g
     transform="matrix(0.26458333,0,0,0.26458334,24.893047,2.0104165)"
     id="g4642">
    <g
       transform="matrix(1.1140552,0,0,1.1140552,-3.3978567,-6.8738791)"
       id="g6260" />
    <g
       transform="matrix(1.1140552,0,0,1.1140552,-3.3978567,-6.8738791)"
       id="g6262" />
    <g
       transform="matrix(1.1140552,0,0,1.1140552,-3.3978567,-6.8738791)"
       id="g6264" />
    <g
       transform="matrix(1.1140552,0,0,1.1140552,-3.3978567,-6.8738791)"
       id="g6266" />
    <g
       transform="matrix(1.1140552,0,0,1.1140552,-3.3978567,-6.8738791)"
       id="g6268" />
    <g
       transform="matrix(1.1140552,0,0,1.1140552,-3.3978567,-6.8738791)"
       id="g6270" />
    <g
       transform="matrix(1.1140552,0,0,1.1140552,-3.3978567,-6.8738791)"
       id="g6272" />
    <g
       transform="matrix(1.1140552,0,0,1.1140552,-3.3978567,-6.8738791)"
       id="g6274" />
    <g
       transform="matrix(1.1140552,0,0,1.1140552,-3.3978567,-6.8738791)"
       id="g6276" />
    <g
       transform="matrix(1.1140552,0,0,1.1140552,-3.3978567,-6.8738791)"
       id="g6278" />
    <g
       transform="matrix(1.1140552,0,0,1.1140552,-3.3978567,-6.8738791)"
       id="g6280" />
    <g
       transform="matrix(1.1140552,0,0,1.1140552,-3.3978567,-6.8738791)"
       id="g6282" />
    <g
       transform="matrix(1.1140552,0,0,1.1140552,-3.3978567,-6.8738791)"
       id="g6284" />
    <g
       transform="matrix(1.1140552,0,0,1.1140552,-3.3978567,-6.8738791)"
       id="g6286" />
    <g
       transform="matrix(1.1140552,0,0,1.1140552,-3.3978567,-6.8738791)"
       id="g6288" />
    <g
       transform="matrix(1.1140552,0,0,1.1140552,-3.3978567,-6.8738791)"
       style="fill:#ffffff;stroke:#000000;stroke-opacity:1"
       id="g4175">
      <g
         style="fill:#231f20;fill-opacity:1;stroke:none;stroke-opacity:1"
         transform="matrix(3.7237245,0,0,3.7237245,152.99815,-36.205933)"
         id="g5660">
        <path
           style="fill:#231f20;fill-opacity:1;stroke:none;stroke-opacity:1"
           d="m -55.05135,31.101127 22,0 -11,-19 -11,19 z m 12,-3 -2,0 0,-2 2,0 0,2 z m 0,-4 -2,0 0,-4 2,0 0,4 z"
           id="path5652" />
      </g>
      <text
         id="text4663"
         y="78.779724"
         x="25.805107"
         style="font-style:normal;font-weight:normal;font-size:93.10049438px;line-height:125%;font-family:sans-serif;letter-spacing:0px;word-spacing:0px;fill:#231f20;fill-opacity:1;stroke:none;stroke-width:1px;stroke-linecap:butt;stroke-linejoin:miter;stroke-opacity:1"
         xml:space="preserve"><tspan
           y="78.779724"
           x="25.805107"
           id="tspan4665">?</tspan></text>
    </g>
  </g>
</svg>
